# xmcd CD database file
#
# Track frame offsets:
#	150
#	12973
#	27286
#	41637
#	57380
#	69176
#	84438
#	99117
#	117033
#	130374
#	139645
#	152272
#
# Disc length: 2220 seconds
#
# Revision: 0
# Processed by: cddbd v1.5.2PL0 Copyright (c) Steve Scherf et al.
# Submitted via: CDex 1.70beta2
#
DISCID=8a08aa0c
DTITLE=Tom Ball and Kenny Sultan - Too Much Fun
DYEAR=1900
DGENRE=Blues
TTITLE0=Too Much Fun
TTITLE1=My Gal
TTITLE2=Chicken Ala Blues
TTITLE3=American Medley
TTITLE4=Long Legged Woman
TTITLE5=It Should've Been me
TTITLE6=How Can I Miss You When You Won't Go Away?
TTITLE7=Your Mind Is In The Gutter
TTITLE8=Fly Hen Blues
TTITLE9=Rake and Ramblin' - Table In Heaven
TTITLE10=Days Like This
TTITLE11=A Dollar Down
EXTD=
EXTT0=
EXTT1=
EXTT2=
EXTT3=
EXTT4=
EXTT5=
EXTT6=
EXTT7=
EXTT8=
EXTT9=
EXTT10=
EXTT11=
PLAYORDER=
